<svg width="73" height="74" viewBox="0 0 73 74" fill="none" xmlns="http://www.w3.org/2000/svg">
<path fill-rule="evenodd" clip-rule="evenodd" d="M27.2523 1.14974C11.4371 5.45492 0 20.3945 0 36.7463C0 47.1391 3.43958 55.6246 10.5838 62.8561C24.876 77.3229 47.397 77.7592 61.5886 63.8439C74.5318 51.1536 76.6944 31.8762 66.897 16.5323C58.7365 3.75203 41.8132 -2.81427 27.2523 1.14974ZM37.4506 2.85487C37.4506 3.65986 33.8047 4.43437 30.0155 4.43437C26.5672 4.43437 26.222 3.1611 29.5566 2.74188C34.1615 2.1636 37.4506 2.21043 37.4506 2.85487ZM46.6297 4.01738L48.8326 4.92049L47.1371 5.84218C45.1375 6.92888 41.2052 6.26066 40.6265 4.73615C40.4092 4.16158 39.7299 3.69108 39.1182 3.69108C38.2025 3.69108 38.1702 3.89251 38.9369 4.82758C39.7101 5.77082 39.5787 6.27775 38.1644 7.80077C37.2274 8.81091 36.7126 9.63746 37.021 9.63746C37.3302 9.63746 38.1592 8.91646 38.8642 8.03565C39.9847 6.63454 40.4334 6.53493 42.4352 7.24107C43.6946 7.68556 45.7617 9.15878 47.0284 10.516L49.332 12.9823L47.3779 10.241L45.4239 7.50048L47.6753 6.32161C49.7704 5.22524 50.1177 5.24308 52.6842 6.57359C56.8816 8.74996 60.5561 12.0524 60.8051 13.872C60.9666 15.0539 60.4225 15.821 58.8319 16.6534C57.624 17.286 56.4234 18.1512 56.1634 18.5771C55.9042 19.0023 56.7347 18.7087 58.0095 17.9237C59.285 17.1388 61.0459 16.6326 61.9235 16.7984C63.3657 17.0719 63.3826 17.0407 62.099 16.4706C61.1179 16.035 60.9475 15.6723 61.5482 15.2962C62.8928 14.4555 63.8863 15.4679 63.8863 17.677C63.8863 19.2706 63.1806 20.1142 60.4533 21.7815C57.6181 23.5156 56.7237 23.7438 55.3131 23.0926C54.3739 22.66 53.6058 21.9874 53.6058 21.5979C53.6058 21.2084 52.8619 20.7832 51.9535 20.6531C51.0452 20.5223 50.3343 19.9975 50.3747 19.4862C50.4151 18.9755 50.4973 16.8512 50.5583 14.7655L50.6684 10.9747L53.9032 11.2348C55.6817 11.3783 56.9836 11.2452 56.7971 10.9382C56.6099 10.632 55.1735 10.3808 53.6058 10.3808C52.038 10.3808 50.6046 10.632 50.421 10.9382C50.2374 11.2452 49.8739 13.6669 49.6132 16.3204C49.0889 21.6603 48.9031 22.0015 46.2625 22.4809C44.4641 22.808 44.4678 22.8161 46.4461 22.9157C47.5571 22.9715 48.4699 23.4353 48.4758 23.9459C48.4809 24.4573 48.6821 25.6184 48.923 26.5267C49.2703 27.8379 48.9281 28.3701 47.2604 29.1126C46.1061 29.627 44.9958 30.2253 44.7938 30.4416C44.5919 30.6579 43.0462 31.7409 41.3594 32.8469L38.2921 34.859L36.7699 31.6762C35.9327 29.9258 35.2476 27.982 35.2476 27.3569C35.2476 26.7318 34.5867 25.6146 33.779 24.8751C32.9073 24.0768 32.3103 22.5857 32.3103 21.2091C32.3103 18.5645 30.5377 15.5838 28.964 15.5838C27.8273 15.5838 27.7457 14.8011 28.577 11.8674C28.8671 10.8453 28.8773 8.95883 28.5998 7.6759L28.096 5.34268L32.5453 5.01638C35.5766 4.79487 37.2332 4.30801 37.7429 3.49113C38.5778 2.15096 42.6658 2.39328 46.6297 4.01738ZM27.3492 10.3592C27.1451 15.5608 25.7579 18.1683 24.091 16.481C23.6034 15.9875 22.8573 15.5942 22.4336 15.6061C22.0092 15.6188 22.2589 15.98 22.9881 16.4096C24.022 17.0184 24.127 17.4183 23.4668 18.2233C23.0013 18.7919 23.9375 18.5258 25.5486 17.6331C29.0426 15.6961 30.5193 16.4349 31.2727 20.4978C31.7823 23.2502 30.8527 24.9776 28.2972 26.0257C27.1818 26.4836 27.1061 26.6508 27.9984 26.6865C28.6556 26.7118 29.6043 26.2316 30.1073 25.6184C31.6355 23.7542 32.278 24.3005 34.6961 29.5207C35.9746 32.2798 37.1231 34.7238 37.2494 34.9512C37.375 35.1787 36.2323 36.006 34.7108 36.7901C33.1886 37.5743 31.7522 38.3169 31.5187 38.4403C31.2859 38.5636 30.7036 37.7951 30.2248 36.7322C29.7468 35.6692 28.32 33.4958 27.0547 31.9022C25.0309 29.3534 24.8775 28.851 25.7785 27.7368C26.6957 26.6025 26.6597 26.5505 25.4334 27.2365C24.3928 27.8185 23.3802 27.6275 21.2169 26.439C18.9338 25.185 18.3545 24.4335 18.2913 22.6452C18.2142 20.4755 18.1973 20.4658 17.6657 22.2735C17.0297 24.4402 17.9521 26.7333 19.4596 26.7333C20.0375 26.7333 21.7118 27.8014 23.1804 29.1067L25.8505 31.48L23.3897 33.6371L20.9283 35.7941L23.4242 34.1076L25.9209 32.4203L28.0138 34.7914C29.1652 36.0959 30.1073 37.6211 30.1073 38.1816C30.1073 39.4407 20.0897 45.5677 19.0719 44.9315C18.6658 44.6773 18.5557 44.1064 18.8266 43.6627C19.1057 43.2055 18.9808 43.068 18.538 43.3453C18.1077 43.6136 17.1994 43.6173 16.5179 43.3527C15.5772 42.9877 15.3878 42.3255 15.7285 40.6003C15.9752 39.3508 16.5855 38.0352 17.0841 37.6776C17.7464 37.2019 17.6943 37.1068 16.8895 37.3253C16.2837 37.4896 15.4855 38.8394 15.1154 40.3245C14.7453 41.8096 13.9191 43.1669 13.2795 43.3408C12.6399 43.5147 12.9616 43.6954 13.9955 43.7429C15.8578 43.8284 19.0609 45.6606 18.3567 46.2374C18.1555 46.4025 16.4063 47.4565 14.4699 48.5796L10.9488 50.6207L7.65975 48.6695C5.85037 47.5969 4.56089 46.4069 4.79368 46.0256C5.02646 45.6443 4.74888 45.5142 4.17684 45.7365C3.46088 46.0145 2.99164 45.405 2.67001 43.7771C1.95331 40.1483 2.11486 35.6529 2.963 35.6529C4.42211 35.6529 7.41448 38.1102 7.06788 39.0237C6.83804 39.6295 7.20961 39.8146 8.15321 39.5649C9.39422 39.2363 9.19889 38.8951 6.70512 37.0391C2.12514 33.6296 2.09136 31.5291 6.60893 31.0957C8.0225 30.9597 10.0052 30.4268 11.0149 29.9109C12.0246 29.3943 13.3052 28.9706 13.8604 28.9677C15.6198 28.9595 14.1622 24.3221 11.6816 22.0349C9.50878 20.0325 9.46766 19.8898 10.7615 18.835C12.0246 17.8063 12.0048 17.787 10.4641 18.5422C9.55504 18.9881 8.8119 19.1182 8.8119 18.8313C8.8119 18.5437 8.59822 18.5251 8.33753 18.7897C8.07611 19.0536 9.23267 20.7743 10.9077 22.6132C12.5819 24.4521 13.9522 26.2903 13.9522 26.6976C13.9522 27.9263 9.91045 29.6478 6.50465 29.87C3.48291 30.0663 3.31548 29.9748 3.49612 28.2199C3.72817 25.9744 7.47396 18.0479 9.58955 15.3259C11.0685 13.4223 11.1676 13.4015 12.8022 14.6495C14.3318 15.8165 14.3781 16.0291 13.303 16.9166C12.2816 17.7595 12.3396 17.787 13.7201 17.1113C16.2815 15.8589 17.6194 16.1599 17.6701 17.9996C17.7156 19.6259 17.7384 19.6207 18.4837 17.8137C18.9052 16.7917 19.3179 15.4538 19.4009 14.8405C19.807 11.8399 20.8262 7.63799 21.4401 6.43682C21.9512 5.43485 22.8133 5.15166 24.8312 5.32187L27.5372 5.54932L27.3492 10.3592ZM20.2424 7.59339C20.0926 8.10478 19.5734 10.0782 19.0895 11.9796C18.3258 14.9736 17.9741 15.4107 16.4628 15.2427C14.6197 15.0375 12.4835 13.594 12.4835 12.5534C12.4835 11.8376 19.0065 6.66427 19.909 6.66427C20.2424 6.66427 20.3922 7.08274 20.2424 7.59339ZM32.1355 9.41967C33.049 9.59732 34.3708 9.59063 35.0728 9.40481C35.7749 9.21898 35.0273 9.0733 33.4118 9.08147C31.7963 9.08965 31.222 9.24202 32.1355 9.41967ZM42.1804 17.483C40.8366 18.5734 40.8601 18.5883 42.5909 17.7543C44.8386 16.6705 45.255 16.3271 44.3224 16.3271C43.9281 16.3271 42.9646 16.8474 42.1804 17.483ZM38.9192 19.3003C38.9192 19.7091 39.2497 20.0436 39.6536 20.0436C40.0574 20.0436 40.3879 19.7091 40.3879 19.3003C40.3879 18.8915 40.0574 18.557 39.6536 18.557C39.2497 18.557 38.9192 18.8915 38.9192 19.3003ZM40.3879 21.6692C40.3879 22.0409 39.3143 22.8176 38.0013 23.3952C36.6884 23.9727 36.1193 24.4581 36.7361 24.4744C37.3537 24.49 38.519 24.0344 39.3275 23.4621C40.1353 22.889 41.6135 22.2936 42.6114 22.139L44.4267 21.8573L42.4073 21.4254C41.2963 21.1876 40.3879 21.2976 40.3879 21.6692ZM67.8171 22.831C68.5647 24.3131 68.6359 25.2095 68.0756 26.0926C67.3626 27.2142 67.0542 27.2165 64.1257 26.1179C62.3787 25.4623 60.949 24.7294 60.949 24.4893C60.949 24.1407 65.9835 20.8702 66.6209 20.804C66.712 20.7944 67.2502 21.7071 67.8171 22.831ZM53.5668 23.0934C55.4548 24.684 55.4151 24.7755 51.9983 26.7601C50.4996 27.6305 49.6448 26.5475 49.4825 23.5743C49.3467 21.0768 50.949 20.888 53.5668 23.0934ZM60.2147 25.8414C60.2147 26.1684 59.8358 26.8195 59.3724 27.2886C58.909 27.7576 58.3297 30.2499 58.0851 32.8261C57.6629 37.274 57.5476 37.5015 55.8065 37.3231C54.5538 37.1945 54.2835 37.3387 54.9518 37.7765C55.4908 38.1296 58.2041 38.2544 60.982 38.053C65.8616 37.6992 66.0621 37.7527 66.9029 39.6199C67.381 40.6828 68.0551 41.3763 68.3995 41.1607C69.349 40.5668 69.1573 39.608 67.8171 38.2515C66.6944 37.1149 66.7223 36.912 68.2085 35.4113C69.5803 34.0258 69.9078 33.9544 70.496 34.9096C71.4807 36.5069 70.1222 47.116 69.0214 46.4277C68.6557 46.1988 68.5324 45.4369 68.7468 44.7345C69.1022 43.572 69.0633 43.5742 68.3077 44.7642C67.8517 45.483 67.6505 46.3527 67.8612 46.6975C68.0712 47.0417 66.325 48.1611 63.981 49.1854C58.8026 51.4465 58.4266 51.2436 55.1023 44.3866C53.7644 41.6275 52.3493 39.3694 51.9579 39.3694C51.5658 39.3694 51.4498 38.8305 51.6994 38.1719C52.0137 37.3424 51.8353 37.0979 51.1193 37.3759C50.5348 37.6026 49.2306 36.808 48.124 35.5511C45.8806 33.0015 46.286 31.9646 50.1419 30.3859C51.441 29.8544 52.6695 29.2204 52.8714 28.9766C53.0734 28.7335 54.3951 27.7999 55.8087 26.9028C58.4567 25.2222 60.2147 24.7985 60.2147 25.8414ZM68.492 30.6839C68.9847 32.1817 68.7593 33.1056 67.4691 34.8724C66.0107 36.8689 65.3784 37.1395 62.1775 37.1395H58.5419L58.9443 32.6522C59.5068 26.3736 60.1985 25.7165 64.4642 27.4127C66.8368 28.3559 68.0492 29.3408 68.492 30.6839ZM69.7609 27.4766C69.7609 27.8854 69.6155 28.2199 69.4371 28.2199C69.2586 28.2199 68.9091 27.8854 68.6594 27.4766C68.4098 27.0678 68.5559 26.7333 68.9833 26.7333C69.4106 26.7333 69.7609 27.0678 69.7609 27.4766ZM15.5912 31.9364C15.5912 33.3672 15.7425 33.9522 15.9268 33.2372C16.1118 32.5221 16.1118 31.3507 15.9268 30.6356C15.7425 29.9206 15.5912 30.5055 15.5912 31.9364ZM54.1565 30.1986C54.6617 30.4052 55.4878 30.4052 55.9923 30.1986C56.4975 29.9927 56.0841 29.8239 55.0744 29.8239C54.0647 29.8239 53.652 29.9927 54.1565 30.1986ZM45.161 34.1663C44.9113 34.5751 44.3393 34.9096 43.8906 34.9096C43.4412 34.9096 42.4697 35.4633 41.731 36.1397C40.9695 36.837 40.3879 37.0087 40.3879 36.5352C40.3879 36.0758 41.2963 35.2017 42.4073 34.5915C44.7836 33.2862 45.7933 33.1309 45.161 34.1663ZM47.4763 36.052C47.7143 36.6809 47.2906 37.9348 46.5349 38.8394L45.161 40.4843L46.7508 39.1256C48.2253 37.8657 48.4721 37.853 50.1361 38.9561C51.7031 39.996 56.9925 48.8345 56.3977 49.4217C55.501 50.307 49.9613 49.8789 48.4501 48.8078C47.4712 48.1135 46.2096 47.5457 45.6464 47.5457C44.9224 47.5457 44.7726 47.0558 45.1346 45.8732C46.308 42.0408 46.4696 40.6389 45.6794 41.1332C44.7358 41.7234 41.0187 37.9103 41.6039 36.9522C42.0644 36.1977 44.7043 35.027 46.1017 34.9564C46.6194 34.9311 47.2377 35.4239 47.4763 36.052ZM41.1949 38.5361L42.8993 39.9328L40.5421 42.6503C39.2453 44.1451 38.1849 45.4518 38.1849 45.5551C38.1849 45.6584 38.9244 45.7989 39.8276 45.868C41.1112 45.9661 41.2316 45.8428 40.3783 45.3061C39.459 44.7271 39.5809 44.319 41.1501 42.7261C42.7465 41.1042 43.1996 40.9712 44.3107 41.7933C45.9746 43.0249 45.1926 45.2853 43.063 45.402C41.9403 45.4637 41.836 45.5811 42.6988 45.8138C44.2387 46.227 44.8783 48.6101 43.7908 49.8789C43.3325 50.4133 43.6189 50.3181 44.4267 49.667C46.662 47.8653 49.9341 49.6388 49.9341 52.6521C49.9341 53.4742 50.1933 54.3097 50.5098 54.5074C50.8263 54.7058 51.0738 53.9856 51.0606 52.9071C51.0371 51.051 51.2302 50.9455 54.7072 50.9187C58.8055 50.8875 58.9472 51.2651 56.7913 56.4652C55.7404 59.0006 55.6832 59.0289 54.5604 57.5802C53.5521 56.2787 53.4662 56.2631 53.8738 57.4553C54.1301 58.2038 54.3401 59.2333 54.3401 59.7424C54.3401 60.3467 55.1008 60.5548 56.5342 60.3415C59.5296 59.8963 61.3573 60.6463 60.3307 61.8987C58.6528 63.945 52.6049 67.9038 53.0829 66.6425C53.3451 65.9505 53.3943 65.3848 53.1916 65.3848C52.9897 65.3848 52.5373 66.1378 52.187 67.0572C51.4909 68.8835 51.5438 68.9727 49.8923 63.1549C48.5022 58.2595 44.5677 54.4732 40.0692 53.7031C39.2879 53.5693 37.535 52.5473 36.1743 51.4316C34.8136 50.3167 32.784 48.7238 31.6634 47.892C29.7835 46.4969 29.6888 46.1914 30.4363 43.9444C30.965 42.3545 32.3874 40.7668 34.5324 39.3716C38.4794 36.8043 39.0022 36.7388 41.1949 38.5361ZM24.2327 39.3255C24.2327 39.7105 24.5595 40.2294 24.959 40.4791C25.3746 40.7393 25.498 40.4412 25.2476 39.7797C24.7592 38.4923 24.2327 38.2567 24.2327 39.3255ZM11.382 40.1127C13.4007 40.9905 14.5602 40.9905 13.2179 40.1127C12.612 39.7165 11.6207 39.4103 11.0149 39.4333C10.2886 39.4601 10.4135 39.6912 11.382 40.1127ZM21.9358 41.4134C21.023 42.5923 21.0487 42.6183 22.2133 41.6944C22.9198 41.1332 23.4984 40.5475 23.4984 40.3936C23.4984 39.7819 22.8955 40.1751 21.9358 41.4134ZM29.5669 44.125C29.3818 45.1054 28.1019 47.0149 26.7221 48.3685L24.2136 50.8295L22.571 49.1482C21.1677 47.7114 21.0891 47.3665 22.0298 46.7823C30.2799 41.658 30.0155 41.7509 29.5669 44.125ZM9.10931 44.7583L7.71042 46.4307L9.54623 44.9523C10.5559 44.1391 11.5201 43.3862 11.6883 43.2799C11.8564 43.1728 11.6596 43.0859 11.2513 43.0859C10.8423 43.0859 9.87888 43.8388 9.10931 44.7583ZM36.2793 48.4748L34.8805 50.1472L36.5327 48.7312C38.085 47.4007 38.519 46.8024 37.9316 46.8024C37.7921 46.8024 37.0489 47.5553 36.2793 48.4748ZM23.4984 51.3915C23.4984 51.7289 23.0292 52.0054 22.4549 52.0054C21.1934 52.0054 20.1212 56.3173 21.1302 57.3386C21.5972 57.8113 21.7331 57.459 21.5194 56.3285C21.0795 53.9997 24.6697 50.3293 25.7286 52.0248C27.2207 54.4122 26.1001 56.0854 19.7989 60.8782C15.542 64.1152 14.8664 64.2394 13.6372 62.0132C13.2046 61.229 12.4189 60.236 11.8917 59.8071C11.067 59.1352 10.5589 57.7392 10.3371 55.5361C10.3055 55.2299 9.92808 54.9786 9.49703 54.9786C9.01898 54.9786 8.91691 55.629 9.23561 56.6451C9.6997 58.1265 9.62407 58.1993 8.55048 57.2977C7.88665 56.7395 7.34546 56.0735 7.34913 55.8171C7.36014 54.8612 13.2149 52.0054 15.1624 52.0054C16.6861 52.0054 16.9754 51.7951 16.338 51.1499C15.7013 50.5055 16.0714 49.9911 17.8434 49.0612C20.0801 47.8876 20.274 47.8987 21.8462 49.3028C22.7553 50.1145 23.4984 51.054 23.4984 51.3915ZM33.2745 50.4794C35.2036 52.0924 37.4418 53.6251 38.2481 53.8838C39.3385 54.2338 39.5904 54.7527 39.2299 55.9033C36.9057 63.3147 34.8577 64.9492 31.4908 62.0816C30.2645 61.0365 28.7679 60.1817 28.1673 60.1817C27.5658 60.1817 26.4335 59.8346 25.6507 59.4109C24.257 58.6557 24.2606 58.597 25.8248 56.4548C27.1928 54.5825 27.2971 53.993 26.551 52.3362C25.788 50.6415 25.8857 50.229 27.3433 48.9988C28.2576 48.2265 29.177 47.5843 29.3862 47.5702C29.5955 47.5568 31.3454 48.8657 33.2745 50.4794ZM7.26101 49.693L9.74817 51.0347L8.03939 52.2463C7.09946 52.9123 6.26967 53.382 6.19624 53.2891C5.34809 52.2255 3.77296 48.2964 4.20328 48.3202C4.51684 48.3373 5.89223 48.9549 7.26101 49.693ZM68.2856 50.1643C67.8987 51.196 66.4109 53.8912 64.9804 56.1545C62.7819 59.6347 62.1283 60.1966 60.7463 59.7952C59.8483 59.5343 58.558 59.1649 57.8788 58.9739C56.7362 58.6535 56.7457 58.3985 58.0095 55.5421C59.0735 53.136 60.2345 52.0054 63.2827 50.4081C68.3202 47.7672 69.2021 47.724 68.2856 50.1643ZM19.0925 51.2621C18.1511 51.8776 18.1775 51.9846 19.276 51.9943C19.9825 52.0002 20.5611 51.671 20.5611 51.2621C20.5611 50.3553 20.4781 50.3553 19.0925 51.2621ZM45.9049 57.6411C47.9434 59.2117 48.5059 60.4738 50.3953 67.7121C50.642 68.6561 49.6485 69.2158 45.9063 70.2408C43.2635 70.9647 40.9364 71.3906 40.7352 71.187C40.5333 70.9833 40.8256 69.6773 41.3844 68.2866C41.9432 66.8952 42.27 65.3989 42.1114 64.9626C41.9527 64.5256 43.0697 63.7941 44.5934 63.3363L47.364 62.5038L44.2431 62.8948C41.8154 63.1988 41.1222 63.0434 41.1222 62.1961C41.1222 61.597 40.6243 60.6886 40.0156 60.1773C39.0294 59.3485 39.0287 59.4808 40.0105 61.3866C41.5613 64.3962 41.388 67.8146 39.5669 70.1583C38.1063 72.0388 37.7627 72.1302 33.8759 71.6686C31.4893 71.3854 29.3561 70.6845 28.8326 70.0111C28.0593 69.018 28.4404 68.5364 31.4027 66.7644C35.5399 64.2899 38.1849 62.0742 38.1849 61.0826C38.1849 60.6872 38.6931 59.1329 39.3136 57.6292C40.2689 55.3153 40.6912 54.9757 42.0673 55.4157C42.961 55.7019 44.6881 56.7031 45.9049 57.6411ZM51.8169 56.683C52.093 57.4159 52.5035 57.8284 52.7297 57.5995C52.9559 57.3713 52.7304 56.7715 52.2282 56.2668C51.5026 55.5383 51.4189 55.6238 51.8169 56.683ZM31.576 58.6951C30.2336 59.573 31.3931 59.573 33.4118 58.6951C34.3804 58.2737 34.5052 58.0425 33.779 58.0157C33.1731 57.9927 32.1818 58.2989 31.576 58.6951ZM24.5485 60.0977C24.7695 60.4597 26.1934 60.9897 27.7127 61.2751C30.3614 61.7731 33.0446 63.4968 33.0446 64.701C33.0446 65.0154 31.167 66.3028 28.8715 67.5612L24.699 69.8483L22.9969 68.2301C22.0613 67.3404 21.2954 67.0082 21.2954 67.4921C21.2954 68.0168 20.2615 67.6935 18.7341 66.6923C17.3257 65.7691 16.1728 64.8459 16.1713 64.6415C16.1691 64.1554 22.911 59.4384 23.6093 59.4384C23.9045 59.4384 24.3275 59.735 24.5485 60.0977Z" fill="white"/>
</svg>
