<svg width="71" height="74" viewBox="0 0 71 74" fill="none" xmlns="http://www.w3.org/2000/svg">
<path fill-rule="evenodd" clip-rule="evenodd" d="M30.7014 0.346624L30.2584 0.693414L30.2137 5.93867L30.1691 11.1841L27.5031 11.2093C25.4175 11.229 24.7505 11.2909 24.4392 11.4939C23.9358 11.8222 23.7582 12.4984 24.0381 13.0215C24.1564 13.2428 26.6 16.3829 29.4682 19.9995C33.0473 24.5123 34.81 26.6067 35.0882 26.6762C35.311 26.7318 35.6742 26.7322 35.8953 26.677C36.1692 26.6085 37.9645 24.4733 41.5316 19.9736C44.4106 16.3419 46.8558 13.2018 46.9651 12.9956C47.2313 12.4942 47.0386 11.8141 46.5382 11.4878C46.2141 11.2766 45.5866 11.2182 43.4742 11.2031L40.8177 11.1841L40.7731 5.93867L40.7284 0.693414L40.2854 0.346624C39.864 0.0169871 39.6298 0 35.4934 0C31.357 0 31.1227 0.0169871 30.7014 0.346624ZM38.1581 7.89631C38.2135 14.2273 38.0164 13.7909 40.819 13.7909C41.8563 13.7909 42.7515 13.8372 42.8083 13.8935C42.8649 13.95 42.3293 14.7257 41.618 15.6174C40.9066 16.5091 39.7848 17.9198 39.1251 18.7523C36.3064 22.3092 35.5732 23.2089 35.4934 23.2089C35.4136 23.2089 34.6804 22.3092 31.8617 18.7523C31.202 17.9198 30.0802 16.5091 29.3688 15.6174C28.6575 14.7257 28.1219 13.95 28.1785 13.8935C28.2353 13.8372 29.1198 13.7909 30.1441 13.7909C31.8237 13.7909 32.0449 13.7551 32.3979 13.4253L32.789 13.0595V7.98729C32.789 5.19766 32.8416 2.86279 32.906 2.79888C32.9702 2.7348 34.1682 2.70336 35.5681 2.72875L38.1133 2.775L38.1581 7.89631ZM4.98439 31.1804C2.46947 31.9773 0.639948 33.9897 0.169551 36.4763C-0.069112 37.7383 -0.0513667 41.8066 0.194734 42.2668C0.30291 42.4688 0.512162 42.7263 0.659552 42.8389C0.868298 42.9984 8.57651 43.045 35.4373 43.0492C54.4176 43.0522 70.07 43.0075 70.2204 42.9501C70.371 42.8926 70.6053 42.6316 70.7413 42.3697C71.0929 41.6935 71.0838 37.4366 70.728 36.0683C70.1967 34.026 68.8332 32.4278 66.8222 31.4904L65.8334 31.0295L35.7469 30.9978C11.7719 30.9725 5.52308 31.0095 4.98439 31.1804ZM65.8334 33.9507C66.8206 34.3989 67.7454 35.427 68.0363 36.3999C68.1769 36.87 68.2842 37.908 68.2842 38.7965V40.3636L63.1712 40.3734C56.2831 40.3867 9.85383 40.3872 5.87177 40.3741L2.70256 40.3636V38.7965C2.70256 37.908 2.80989 36.87 2.95052 36.3999C3.24141 35.427 4.16614 34.3989 5.15342 33.9507C5.79977 33.6572 7.13794 33.6438 35.4934 33.6438C63.8488 33.6438 65.187 33.6572 65.8334 33.9507ZM34.5928 47.6375C34.1662 48.029 24.9158 59.6749 24.2106 60.7083C23.7688 61.3559 23.8067 61.9257 24.3266 62.4531C24.5965 62.7269 24.9552 62.7663 27.4007 62.7895L30.1691 62.8159L30.2137 68.0613L30.2584 73.3066L30.7014 73.6534C31.1227 73.983 31.357 74 35.4934 74C39.6298 74 39.864 73.983 40.2854 73.6534L40.7284 73.3066L40.7731 68.0613L40.8177 62.8159L43.4742 62.7969C45.5866 62.7818 46.2141 62.7234 46.5382 62.5122C47.0501 62.1785 47.2303 61.5049 46.9487 60.9785C46.565 60.2611 36.3405 47.4641 36.0681 47.36C35.5485 47.1617 34.9987 47.2651 34.5928 47.6375ZM36.7518 52.2627C37.3973 53.072 38.4654 54.4152 39.1251 55.2477C39.7848 56.0802 40.9066 57.4909 41.618 58.3826C42.3293 59.2743 42.8649 60.05 42.8083 60.1065C42.7515 60.1628 41.8563 60.2091 40.819 60.2091C38.0164 60.2091 38.2135 59.7727 38.1581 66.1037L38.1133 71.225H35.4934H32.8735L32.8287 66.1037C32.7733 59.7727 32.9704 60.2091 30.1678 60.2091C29.1305 60.2091 28.2353 60.1628 28.1785 60.1065C28.1219 60.05 28.6575 59.2743 29.3688 58.3826C30.0802 57.4909 31.202 56.0802 31.8617 55.2477C34.6804 51.6908 35.4136 50.7911 35.4934 50.7911C35.5399 50.7911 36.1061 51.4534 36.7518 52.2627Z" fill="white"/>
</svg>
