<svg width="75" height="52" viewBox="0 0 75 52" fill="none" xmlns="http://www.w3.org/2000/svg">
<path fill-rule="evenodd" clip-rule="evenodd" d="M59.0701 0.356913C57.4013 1.0339 56.519 1.85946 55.7933 3.42343C55.3401 4.39989 55.057 6.47102 55.2259 7.57249C55.4085 8.76372 56.3857 9.31742 57.2822 8.73785C57.7789 8.41684 57.9472 7.8088 57.9472 6.33646C57.9472 4.91687 58.1554 4.23758 58.7973 3.56218C60.0032 2.29334 62.3367 2.29334 63.5425 3.56218C64.3905 4.45437 64.3926 4.47403 64.3926 11.4889V17.9251H63.8066H63.2207V16.6372C63.2207 15.3765 63.2112 15.3413 62.77 14.9751C62.0452 14.3733 61.2262 14.5174 60.8052 15.3207C60.6651 15.5878 60.584 16.1433 60.584 16.8339V17.9251H32.0251C3.62205 17.9251 3.46165 17.9267 2.66595 18.2205C1.70018 18.577 0.757257 19.4408 0.330987 20.3596C-0.11579 21.3223 -0.109345 22.9561 0.344757 23.8654C1.00775 25.1929 2.28187 26.0913 3.74422 26.2621C4.16346 26.3111 4.52557 26.4228 4.54901 26.5103C4.5723 26.5977 4.76609 27.5642 4.97967 28.658C6.0222 33.9983 8.05643 39.1886 10.387 42.4554C10.8847 43.153 11.9676 44.3837 12.7934 45.1901L14.2949 46.6562L14.3019 48.0807C14.3101 49.7291 14.5035 50.2498 15.3591 50.9285C15.7964 51.2753 16.0883 51.3786 16.7677 51.4272C17.8939 51.5075 18.2829 51.3107 20.0012 49.7908L21.3864 48.5657H37.4394H53.4925L54.8777 49.8041C56.5363 51.2871 56.9783 51.508 58.1233 51.4263C58.7897 51.3788 59.0847 51.2735 59.5198 50.9285C60.3754 50.2498 60.5687 49.7291 60.5769 48.0807L60.584 46.6562L62.0854 45.1901C62.9112 44.3837 63.9941 43.153 64.4919 42.4554C66.8224 39.1886 68.8567 33.9983 69.8992 28.658C70.1128 27.5642 70.3066 26.5977 70.3299 26.5103C70.3533 26.4228 70.7154 26.3111 71.1347 26.2621C75.7277 25.7255 76.2717 19.3856 71.8351 18.0994L70.9848 17.8529L70.9845 16.8726C70.9845 16.3335 70.8935 15.6781 70.7826 15.4161C70.5518 14.8707 69.8676 14.5197 69.3067 14.6586C68.5121 14.8553 68.2061 15.5505 68.2028 17.1663L68.2012 17.9251H67.6989H67.1966L67.1454 11.2406C67.0959 4.73491 67.0858 4.53473 66.77 3.76106C66.101 2.12251 64.6278 0.74498 63.0043 0.240132C61.8446 -0.120618 60.1208 -0.0694538 59.0701 0.356913ZM71.4238 20.7799C72.159 21.1422 72.4491 21.9853 72.0931 22.7253C71.7472 23.4445 71.1282 23.7064 69.7737 23.7064C68.7931 23.7064 68.6415 23.7448 68.3013 24.0804C68.0492 24.3292 67.8913 24.6804 67.8301 25.1283C67.0271 31.0042 64.9971 36.9388 62.548 40.5706C61.705 41.8205 59.9626 43.6715 58.6797 44.68L58.0205 45.1982L57.9472 47.0534L57.874 48.9086L56.234 47.456C55.1507 46.4966 54.4357 45.9723 54.1283 45.9116C53.5199 45.7915 21.359 45.7915 20.7506 45.9116C20.4431 45.9723 19.7282 46.4966 18.6449 47.456L17.0049 48.9086L16.9316 47.0534L16.8584 45.1982L16.1992 44.68C14.9163 43.6715 13.1739 41.8205 12.3308 40.5706C9.88177 36.9388 7.85179 31.0042 7.04876 25.1283C6.98753 24.6804 6.82962 24.3292 6.57752 24.0804C6.23738 23.7448 6.08577 23.7064 5.10521 23.7064C3.75066 23.7064 3.13162 23.4445 2.78577 22.7253C2.42982 21.9853 2.71985 21.1422 3.45506 20.7799C3.9386 20.5414 5.86619 20.5271 37.4394 20.5271C69.0127 20.5271 70.9403 20.5414 71.4238 20.7799Z" fill="white"/>
</svg>
