<svg width="38" height="38" viewBox="0 0 38 38" fill="none" xmlns="http://www.w3.org/2000/svg">
<g clip-path="url(#clip0_8_22)">
<path d="M19 35.9436C28.3577 35.9436 35.9436 28.3577 35.9436 19C35.9436 9.64233 28.3577 2.05643 19 2.05643C9.6423 2.05643 2.0564 9.64233 2.0564 19C2.0564 28.3577 9.6423 35.9436 19 35.9436Z" fill="white"/>
<path d="M19 0C15.2422 0 11.5687 1.11433 8.44417 3.20208C5.31964 5.28982 2.88436 8.25722 1.4463 11.729C0.00823234 15.2008 -0.368031 19.0211 0.365088 22.7067C1.09821 26.3924 2.90778 29.7778 5.56498 32.435C8.22218 35.0922 11.6077 36.9018 15.2933 37.6349C18.9789 38.368 22.7992 37.9918 26.271 36.5537C29.7428 35.1156 32.7102 32.6804 34.7979 29.5558C36.8857 26.4313 38 22.7578 38 19C38.0073 16.5121 37.5244 14.0472 36.5791 11.7459C35.6337 9.44466 34.2443 7.35213 32.4903 5.58781C30.7362 3.8235 28.6518 2.42195 26.3561 1.46319C24.0604 0.504432 21.5983 0.00723918 19.1104 0H19ZM19.322 19.6441L17.3438 26.3148H27.9249C27.995 26.3123 28.0649 26.3237 28.1306 26.3483C28.1963 26.3728 28.2565 26.4101 28.3078 26.458C28.3591 26.5058 28.4004 26.5633 28.4294 26.6272C28.4585 26.691 28.4746 26.7599 28.477 26.83V27.0048L27.5569 30.1792C27.5163 30.3293 27.4259 30.4612 27.3005 30.5531C27.1751 30.6451 27.0222 30.6917 26.8668 30.6852H10.6731L13.3874 21.4383L10.3511 22.3584L11.0412 20.2421L14.0775 19.322L17.8959 6.34867C17.9379 6.19939 18.0287 6.06848 18.1538 5.97677C18.2788 5.88506 18.431 5.83784 18.586 5.84262H22.6804C22.7505 5.84016 22.8204 5.85154 22.8861 5.87611C22.9518 5.90068 23.012 5.93796 23.0632 5.98581C23.1145 6.03367 23.1558 6.09116 23.1849 6.155C23.2139 6.21884 23.2301 6.28778 23.2325 6.35787V6.53269L20.0121 17.4818L23.0484 16.5617L22.4044 18.77L19.322 19.6441Z" fill="#345D9D"/>
</g>
<defs>
<clipPath id="clip0_8_22">
<rect width="38" height="38" fill="white"/>
</clipPath>
</defs>
</svg>
