<svg width="35" height="35" viewBox="0 0 35 35" fill="none" xmlns="http://www.w3.org/2000/svg">
<g clip-path="url(#clip0_2_196)">
<path d="M24.0625 2.1875C24.6427 2.1875 25.1991 2.41797 25.6093 2.8282C26.0195 3.23844 26.25 3.79484 26.25 4.375V30.625C26.25 31.2052 26.0195 31.7616 25.6093 32.1718C25.1991 32.582 24.6427 32.8125 24.0625 32.8125H10.9375C10.3573 32.8125 9.80094 32.582 9.3907 32.1718C8.98047 31.7616 8.75 31.2052 8.75 30.625V4.375C8.75 3.79484 8.98047 3.23844 9.3907 2.8282C9.80094 2.41797 10.3573 2.1875 10.9375 2.1875H24.0625ZM10.9375 0C9.77718 0 8.66438 0.460936 7.84391 1.28141C7.02344 2.10188 6.5625 3.21468 6.5625 4.375V30.625C6.5625 31.7853 7.02344 32.8981 7.84391 33.7186C8.66438 34.5391 9.77718 35 10.9375 35H24.0625C25.2228 35 26.3356 34.5391 27.1561 33.7186C27.9766 32.8981 28.4375 31.7853 28.4375 30.625V4.375C28.4375 3.21468 27.9766 2.10188 27.1561 1.28141C26.3356 0.460936 25.2228 0 24.0625 0L10.9375 0Z" fill="#0083C8"/>
<path d="M17.5 30.625C18.0802 30.625 18.6366 30.3945 19.0468 29.9843C19.457 29.5741 19.6875 29.0177 19.6875 28.4375C19.6875 27.8573 19.457 27.3009 19.0468 26.8907C18.6366 26.4805 18.0802 26.25 17.5 26.25C16.9198 26.25 16.3634 26.4805 15.9532 26.8907C15.543 27.3009 15.3125 27.8573 15.3125 28.4375C15.3125 29.0177 15.543 29.5741 15.9532 29.9843C16.3634 30.3945 16.9198 30.625 17.5 30.625Z" fill="#0083C8"/>
</g>
<defs>
<clipPath id="clip0_2_196">
<rect width="35" height="35" fill="white"/>
</clipPath>
</defs>
</svg>
