<svg width="32" height="32" viewBox="0 0 32 32" fill="none" xmlns="http://www.w3.org/2000/svg">
<path d="M30.9872 28.9632L28.8 22.4H26.4L27.7328 28.8H4.26721L5.60001 22.4H3.20001L1.01121 28.9632C0.456007 30.6336 1.44001 32 3.20001 32H28.8C30.56 32 31.544 30.6336 30.9872 28.9632ZM24 8C24 5.87827 23.1572 3.84344 21.6569 2.34315C20.1566 0.842855 18.1217 0 16 0C13.8783 0 11.8434 0.842855 10.3432 2.34315C8.84286 3.84344 8.00001 5.87827 8.00001 8C8.00001 15.64 16 24 16 24C16 24 24 15.64 24 8ZM11.68 8.096C11.68 7.52877 11.7918 6.96709 12.0089 6.44305C12.226 5.91901 12.5442 5.44289 12.9454 5.04186C13.3466 4.64084 13.8228 4.32279 14.3469 4.10586C14.8711 3.88893 15.4328 3.77739 16 3.7776C17.1455 3.7776 18.2441 4.23266 19.0541 5.04266C19.8642 5.85267 20.3192 6.95128 20.3192 8.0968C20.3192 9.24232 19.8642 10.3409 19.0541 11.1509C18.2441 11.9609 17.1455 12.416 16 12.416C14.8543 12.416 13.7555 11.9609 12.9453 11.1507C12.1351 10.3405 11.68 9.24174 11.68 8.096Z" fill="#0083C8"/>
</svg>
