<svg width="56" height="56" viewBox="0 0 56 56" fill="none" xmlns="http://www.w3.org/2000/svg">
<path d="M28.0003 49C25.0532 46.4861 22.3214 43.7302 19.8337 40.761C16.1003 36.302 11.667 29.6613 11.667 23.3333C11.6654 20.1016 12.6225 16.942 14.4173 14.2544C16.212 11.5668 18.7638 9.47208 21.7495 8.23527C24.7352 6.99846 28.0207 6.67519 31.1903 7.30636C34.3598 7.93753 37.2708 9.49477 39.555 11.781C41.0758 13.295 42.2811 15.0956 43.1014 17.0786C43.9217 19.0615 44.3405 21.1874 44.3337 23.3333C44.3337 29.6613 39.9003 36.302 36.167 40.761C33.6792 43.7302 30.9475 46.4861 28.0003 49ZM28.0003 11.6667C24.9073 11.6704 21.942 12.9007 19.7548 15.0879C17.5677 17.275 16.3374 20.2403 16.3337 23.3333C16.3337 26.054 17.5633 30.765 23.4153 37.7673C24.8576 39.4895 26.388 41.1359 28.0003 42.7C29.6127 41.1377 31.1438 39.4936 32.5877 37.7743C38.4373 30.7627 39.667 26.0517 39.667 23.3333C39.6633 20.2403 38.4329 17.275 36.2458 15.0879C34.0587 12.9007 31.0934 11.6704 28.0003 11.6667ZM28.0003 30.3333C26.1438 30.3333 24.3633 29.5958 23.0506 28.2831C21.7378 26.9703 21.0003 25.1899 21.0003 23.3333C21.0003 21.4768 21.7378 19.6964 23.0506 18.3836C24.3633 17.0708 26.1438 16.3333 28.0003 16.3333C29.8568 16.3333 31.6373 17.0708 32.9501 18.3836C34.2628 19.6964 35.0003 21.4768 35.0003 23.3333C35.0003 25.1899 34.2628 26.9703 32.9501 28.2831C31.6373 29.5958 29.8568 30.3333 28.0003 30.3333Z" fill="#0083C8"/>
</svg>
