<svg width="61" height="49" viewBox="0 0 61 49" fill="none" xmlns="http://www.w3.org/2000/svg">
<path d="M60.063 5.9594C57.8711 6.93065 55.5165 7.5869 53.0411 7.88353C55.5952 6.35523 57.5061 3.94987 58.4171 1.11628C56.0174 2.54162 53.3911 3.54491 50.6523 4.08253C48.8106 2.11605 46.3711 0.812631 43.7127 0.374644C41.0543 -0.0633428 38.3256 0.388603 35.9503 1.66031C33.5751 2.93202 31.6861 4.95235 30.5767 7.40762C29.4674 9.8629 29.1996 12.6157 29.8151 15.2388C24.9528 14.9946 20.1961 13.7308 15.8538 11.5294C11.5115 9.32796 7.68067 6.23807 4.60984 2.46028C3.55984 4.27153 2.95609 6.37153 2.95609 8.60803C2.95492 10.6214 3.45073 12.6039 4.39952 14.3797C5.34832 16.1555 6.72077 17.6696 8.39509 18.7878C6.45332 18.726 4.55438 18.2013 2.85634 17.2574V17.4149C2.85615 20.2387 3.83293 22.9756 5.62095 25.1613C7.40897 27.3469 9.89809 28.8466 12.666 29.4059C10.8646 29.8934 8.9761 29.9652 7.14297 29.6159C7.9239 32.0456 9.44508 34.1703 11.4936 35.6926C13.542 37.2148 16.0152 38.0584 18.567 38.1052C14.2353 41.5056 8.88567 43.3501 3.37872 43.342C2.40322 43.3423 1.42854 43.2853 0.459717 43.1714C6.04959 46.7655 12.5566 48.6729 19.2022 48.6655C41.6985 48.6655 53.9966 30.0333 53.9966 13.8738C53.9966 13.3488 53.9835 12.8185 53.9598 12.2935C56.352 10.5636 58.4169 8.42138 60.0577 5.96728L60.063 5.9594Z" fill="black"/>
</svg>
