<svg width="49" height="49" viewBox="0 0 49 49" fill="none" xmlns="http://www.w3.org/2000/svg">
<g clip-path="url(#clip0_2_167)">
<path d="M47.4491 44.3499L44.1 34.3H40.425L42.4658 44.1H6.53414L8.57499 34.3H4.89999L1.54839 44.3499C0.698238 46.9077 2.20499 49 4.89999 49H44.1C46.795 49 48.3017 46.9077 47.4491 44.3499ZM36.75 12.25C36.75 9.0011 35.4594 5.88526 33.162 3.58794C30.8647 1.29062 27.7489 0 24.5 0C21.2511 0 18.1353 1.29062 15.8379 3.58794C13.5406 5.88526 12.25 9.0011 12.25 12.25C12.25 23.9488 24.5 36.75 24.5 36.75C24.5 36.75 36.75 23.9488 36.75 12.25ZM17.885 12.397C17.885 11.5284 18.0561 10.6684 18.3886 9.86592C18.721 9.06349 19.2083 8.33442 19.8226 7.72036C20.4369 7.10629 21.1662 6.61927 21.9687 6.2871C22.7713 5.95493 23.6314 5.78413 24.5 5.78445C26.2541 5.78445 27.9363 6.48126 29.1766 7.72158C30.417 8.9619 31.1138 10.6441 31.1138 12.3982C31.1138 14.1523 30.417 15.8345 29.1766 17.0749C27.9363 18.3152 26.2541 19.012 24.5 19.012C22.7456 19.012 21.063 18.3151 19.8225 17.0745C18.5819 15.834 17.885 14.1514 17.885 12.397Z" fill="black"/>
</g>
<defs>
<clipPath id="clip0_2_167">
<rect width="49" height="49" fill="white"/>
</clipPath>
</defs>
</svg>
