<svg width="38" height="38" viewBox="0 0 38 38" fill="none" xmlns="http://www.w3.org/2000/svg">
<path d="M16.7102 9.88L11.3538 3.69708C10.7363 2.98458 9.60422 2.98775 8.88697 3.70658L4.48213 8.11933C3.17113 9.43191 2.79588 11.381 3.5543 12.9437C8.0852 22.3249 15.651 29.9014 25.0259 34.4454C26.587 35.2038 28.5346 34.8286 29.8455 33.516L34.2916 29.0621C35.012 28.3417 35.0135 27.2032 34.2947 26.5857L28.088 21.2578C27.4389 20.7005 26.4303 20.7733 25.7795 21.4257L23.6199 23.5885C23.5093 23.7044 23.3638 23.7808 23.2056 23.8059C23.0474 23.8311 22.8854 23.8037 22.7443 23.7278C19.2142 21.695 16.2859 18.7629 14.2576 15.2301C14.1817 15.0888 14.1542 14.9264 14.1793 14.768C14.2045 14.6095 14.281 14.4637 14.397 14.3529L16.5503 12.198C17.2026 11.5425 17.2739 10.5292 16.7102 9.87841V9.88Z" stroke="#0083C8" stroke-width="2" stroke-linecap="round" stroke-linejoin="round"/>
</svg>
