<svg width="74" height="74" viewBox="0 0 74 74" fill="none" xmlns="http://www.w3.org/2000/svg">
<path fill-rule="evenodd" clip-rule="evenodd" d="M33.5241 0.142071C28.2412 0.833364 23.557 2.75288 19.3169 5.96408C9.48028 13.4134 5.40319 26.4739 9.26565 38.1619C10.7065 42.522 13.1427 46.4733 16.3954 49.7261C25.147 58.4776 38.345 60.7849 49.4044 55.4965C52.5743 53.9808 55.1539 52.1623 57.5902 49.7261C63.3537 43.9625 66.4931 36.0172 66.1283 28.117C65.796 20.921 63.3267 14.8262 58.6102 9.56016C57.1674 7.94907 56.3489 7.70019 55.5635 8.63343C54.9612 9.34929 55.068 9.8498 56.0698 11.004C57.358 12.4884 59.0137 14.6715 58.9214 14.7639C58.8769 14.8084 56.0547 16.454 52.65 18.4207L46.4596 21.9965L46.3486 21.5519C46.1896 20.9144 46.3616 19.0264 46.6849 17.8594C47.0529 16.5316 47.5124 15.538 48.321 14.321C49.1086 13.136 49.174 12.6053 48.6147 11.9406C48.3046 11.572 48.135 11.4959 47.6241 11.4959C47.1852 11.4959 46.9068 11.5895 46.6569 11.8211C45.6492 12.7553 44.2499 15.5118 43.7728 17.5026C43.4392 18.8943 43.3429 20.9796 43.5355 22.6478L43.6466 23.61L40.742 25.2964C39.1444 26.224 37.7483 26.9489 37.6396 26.9071C37.304 26.7783 36.2989 24.5002 35.9734 23.1306C35.7147 22.0419 35.6786 21.5707 35.7513 20.24C35.8834 17.8207 36.3653 16.3593 37.7053 14.3142C38.3562 13.3209 38.4517 13.0867 38.3832 12.6521C38.2726 11.951 37.7133 11.4959 36.9623 11.4959C36.4621 11.4959 36.2891 11.5822 35.8503 12.0503C34.7164 13.26 33.5125 15.8012 33.0799 17.8972C32.7738 19.3806 32.7219 21.4677 32.9552 22.9138C33.1757 24.282 33.885 26.3071 34.5455 27.4557C34.862 28.0063 35.0707 28.5046 35.0091 28.5633C34.8922 28.6746 30.8476 31.0322 30.175 31.3811L29.7889 31.5814L29.2095 30.3912C28.8908 29.7366 28.1637 28.5506 27.5937 27.7556C26.3147 25.9723 25.9694 25.3021 25.4946 23.6809C25.0086 22.0215 24.9742 19.6597 25.4117 17.9801C25.7309 16.7545 26.4803 15.1699 27.2424 14.109C28.1844 12.7978 27.7586 11.4959 26.3878 11.4959C25.7919 11.4959 25.6921 11.5528 25.1001 12.2295C24.747 12.633 24.1642 13.5274 23.8051 14.2168C22.6589 16.4164 22.2036 18.2566 22.2073 20.6736C22.2122 23.9506 22.982 26.2313 25.0849 29.1999C26.0502 30.5624 27.1647 32.5996 27.1647 33.0014C27.1647 33.1102 13.7103 40.9802 13.5241 40.9802C13.4936 40.9802 13.2239 40.4112 12.9249 39.7156C10.8801 34.9583 10.2489 29.9654 11.0562 24.9312C12.5589 15.5597 19.1691 7.60321 28.1041 4.4108C33.7177 2.40529 39.4449 2.33924 45.4194 4.21106C46.8877 4.6711 47.0108 4.68772 47.4842 4.49C47.8273 4.34677 48.0558 4.11654 48.2016 3.76749C48.455 3.16104 48.3614 2.66949 47.9055 2.21364C47.3527 1.66081 44.0335 0.684786 41.3287 0.279954C39.2883 -0.0255852 35.3376 -0.0953938 33.5241 0.142071ZM51.4297 4.62341C50.9427 4.89729 50.6646 5.57327 50.7818 6.19822C50.9003 6.82953 51.2832 7.16557 51.9924 7.26067C53.2601 7.43078 54.0702 5.81622 53.1693 4.91522C52.7195 4.46543 51.9424 4.33507 51.4297 4.62341ZM60.9815 18.325C63.7474 24.5074 64.0095 31.583 61.7107 38.0174C59.096 45.3357 53.1998 51.2318 45.8815 53.8466C44.2584 54.4264 42.781 54.8103 41.1903 55.0652C32.8091 56.4092 24.3537 53.6746 18.4205 47.7008C16.8988 46.1685 14.9149 43.626 15.1082 43.4555C15.2932 43.2925 27.598 36.2107 27.6964 36.2107C27.8404 36.2107 27.5876 38.1383 27.3049 39.1963C26.9453 40.5417 26.4878 41.5413 25.6646 42.7801C24.8486 44.008 24.7926 44.5561 25.4192 45.1828C25.8403 45.6038 26.5081 45.7372 27.0858 45.5155C27.4657 45.3698 28.5669 43.7123 29.2491 42.2596C30.2192 40.1934 30.5498 38.6969 30.5406 36.4126L30.5331 34.5187L33.7008 32.6934L36.8687 30.8681L37.2696 31.7688C38.0212 33.4572 38.2108 34.3921 38.2147 36.4275C38.2177 37.9976 38.1629 38.4836 37.8814 39.3842C37.5303 40.5072 36.8993 41.7942 36.0362 43.1482C35.627 43.7901 35.544 44.0405 35.6057 44.449C35.7117 45.1497 36.2702 45.6052 37.023 45.6052C37.5269 45.6052 37.6931 45.5208 38.1352 45.04C39.3125 43.7597 40.4736 41.2982 40.9223 39.1305C41.4819 36.4271 41.1062 33.1728 39.9534 30.7396C39.6765 30.1551 39.4522 29.6023 39.455 29.5111C39.4579 29.4201 40.6125 28.6854 42.0205 27.8785L44.5807 26.4116L45.0143 27.2008C45.2528 27.6349 45.8581 28.5552 46.3596 29.2459C48.1706 31.7406 48.8906 33.8126 48.8733 36.4794C48.8577 38.8902 48.1839 40.9482 46.7611 42.931C46.0856 43.8723 46.0475 44.6415 46.6482 45.2169C46.9538 45.5096 47.1999 45.6052 47.6477 45.6052C48.1749 45.6052 48.3095 45.5284 48.8439 44.921C50.917 42.566 52.115 38.4819 51.736 35.0615C51.4065 32.0865 50.6921 30.3527 48.5767 27.3943C48.1505 26.7981 47.6466 26.0048 47.4573 25.6315L47.1129 24.9526L48.882 23.9331C49.8549 23.3724 52.8298 21.6498 55.4928 20.105C58.1558 18.5604 60.3746 17.2921 60.4236 17.2868C60.4726 17.2815 60.7237 17.7487 60.9815 18.325ZM0.932263 61.924C0.011165 62.3183 -0.23237 63.5122 0.46586 64.2103C1.34345 65.0881 2.80467 64.4806 2.80467 63.2381C2.80467 62.2863 1.77445 61.5632 0.932263 61.924ZM6.71351 61.9293C5.79343 62.306 5.54888 63.5121 6.25029 64.2136L6.64761 64.6111L14.1601 64.651L21.6725 64.6909V65.6773C21.6725 67.3286 22.1057 68.0115 23.1489 68.0044C24.1292 67.9978 24.5631 67.3144 24.5631 65.7769V64.6834H36.9928H49.4225V65.6736C49.4225 67.3287 49.8549 68.0115 50.8989 68.0044C51.8792 67.9978 52.3131 67.3144 52.3131 65.7769V64.6834H62.6448H72.9765L73.4452 64.2645C73.8331 63.9179 73.914 63.741 73.914 63.2381C73.914 62.7351 73.8331 62.5582 73.4452 62.2116L72.9765 61.7927L39.9895 61.8018C21.8467 61.8069 6.8725 61.8643 6.71351 61.9293ZM8.42867 67.9746C7.92974 68.3789 7.7975 68.7909 7.7975 69.942V71.0281L4.31661 71.0715L0.83586 71.115L0.414263 71.587C-0.138136 72.2058 -0.138136 72.7706 0.414552 73.3891L0.836294 73.8611L36.9055 73.8981L72.9746 73.9351L73.4443 73.5154C73.8331 73.1679 73.914 72.9912 73.914 72.4881C73.914 71.9851 73.8331 71.8082 73.4452 71.4616L72.9765 71.0427H69.5823H66.1881V69.9492C66.1881 68.3943 65.7531 67.7249 64.7428 67.7249C63.7325 67.7249 63.2975 68.3943 63.2975 69.9492V71.0427H50.8678H38.4381V69.9492C38.4381 68.3943 38.0031 67.7249 36.9928 67.7249C35.9825 67.7249 35.5475 68.3943 35.5475 69.9492V71.0427H23.1178H10.6881V69.9492C10.6881 68.3943 10.2531 67.7249 9.24281 67.7249C8.96459 67.7249 8.5982 67.8373 8.42867 67.9746Z" fill="white"/>
</svg>
